HIERARCHY
ROOT Hips
{
 OFFSET 0.000000 0.000000 0.000000
 CHANNELS 6 Xposition Yposition Zposition Yrotation Xrotation Zrotation
 JOINT Chest
 {
  OFFSET 0.000000 9.585900 0.002600
  CHANNELS 3 Yrotation Xrotation Zrotation
  JOINT Chest2
  {
   OFFSET 0.000000 9.601200 -0.005300
   CHANNELS 3 Yrotation Xrotation Zrotation
   JOINT Chest3
   {
    OFFSET 0.000000 9.561800 0.000000
    CHANNELS 3 Yrotation Xrotation Zrotation
    JOINT Chest4
    {
     OFFSET 0.000000 9.552100 0.000000
     CHANNELS 3 Yrotation Xrotation Zrotation
     JOINT Neck
     {
      OFFSET 0.000000 14.453000 0.000000
      CHANNELS 3 Yrotation Xrotation Zrotation
      JOINT Head
      {
       OFFSET 0.000000 8.936500 -0.011300
       CHANNELS 3 Yrotation Xrotation Zrotation
       End Site
       {
        OFFSET 0.000000 17.073600 -0.006000
       }
      }
     }
     JOINT RightCollar
     {
      OFFSET -2.921100 9.558500 0.000000
      CHANNELS 3 Yrotation Xrotation Zrotation
      JOINT RightShoulder
      {
       OFFSET -13.519700 0.000000 0.000000
       CHANNELS 3 Yrotation Xrotation Zrotation
       JOINT RightElbow
       {
        OFFSET 0.000000 -29.696600 0.000000
        CHANNELS 3 Yrotation Xrotation Zrotation
        JOINT RightWrist
        {
         OFFSET 0.000000 -24.004700 0.000000
         CHANNELS 3 Yrotation Xrotation Zrotation
         End Site
         {
          OFFSET 0.000000 -17.728500 0.000000
         }
        }
       }
      }
     }
     JOINT LeftCollar
     {
      OFFSET 2.921100 9.558500 0.000000
      CHANNELS 3 Yrotation Xrotation Zrotation
      JOINT LeftShoulder
      {
       OFFSET 13.519700 0.000000 0.000000
       CHANNELS 3 Yrotation Xrotation Zrotation
       JOINT LeftElbow
       {
        OFFSET 0.000000 -29.696600 0.000000
        CHANNELS 3 Yrotation Xrotation Zrotation
        JOINT LeftWrist
        {
         OFFSET 0.000000 -24.004700 0.000000
         CHANNELS 3 Yrotation Xrotation Zrotation
         End Site
         {
          OFFSET 0.000000 -17.728500 0.000000
         }
        }
       }
      }
     }
    }
   }
  }
 }
 JOINT RightHip
 {
  OFFSET -7.771700 -0.012900 -0.001300
  CHANNELS 3 Yrotation Xrotation Zrotation
  JOINT RightKnee
  {
   OFFSET 0.000000 -40.869800 0.001200
   CHANNELS 3 Yrotation Xrotation Zrotation
   JOINT RightAnkle
   {
    OFFSET 0.000000 -39.717900 0.002100
    CHANNELS 3 Yrotation Xrotation Zrotation
    JOINT RightToe
    {
     OFFSET 0.000000 -4.965400 11.033500
     CHANNELS 3 Yrotation Xrotation Zrotation
     End Site
     {
      OFFSET 0.000000 -1.423100 5.872300
     }
    }
   }
  }
 }
 JOINT LeftHip
 {
  OFFSET 7.771700 -0.012900 -0.001300
  CHANNELS 3 Yrotation Xrotation Zrotation
  JOINT LeftKnee
  {
   OFFSET 0.000000 -40.869800 0.001200
   CHANNELS 3 Yrotation Xrotation Zrotation
   JOINT LeftAnkle
   {
    OFFSET 0.000000 -39.717900 0.002100
    CHANNELS 3 Yrotation Xrotation Zrotation
    JOINT LeftToe
    {
     OFFSET 0.000000 -4.965400 11.033500
     CHANNELS 3 Yrotation Xrotation Zrotation
     End Site
     {
      OFFSET 0.000000 -1.423100 5.872300
     }
    }
   }
  }
 }
}
MOTION
Frames: 11
Frame Time: 0.008333
-59.107733 57.783593 11.779160 178.508164 -49.449660 -3.017003 3.296341 21.568384 2.671437 1.678596 12.346499 1.311063 2.156515 15.426407 1.707104 1.651250 12.346217 1.325219 0.415087 16.243155 3.889739 -0.759293 -5.604041 7.134617 1.556964 3.293163 -0.510165 -3.375695 -15.356200 -6.564547 -9.223986 -72.194964 51.813256 19.845653 20.214468 -20.709652 -9.843492 0.822440 -1.140283 5.143205 -15.649359 11.178527 41.807392 -58.318986 -79.716224 0.116106 11.375190 6.632963 4.678504 -22.093690 -3.316413 -30.343426 74.518025 -34.851232 7.621441 -14.005528 12.139157 0.007429 0.144617 -0.086270 -7.913103 -19.703207 4.863162 87.400423 80.941076 86.526011 0.779609 -21.426075 -18.918145 -0.012909 0.015916 -0.018843
-59.104484 57.787033 11.777396 178.507596 -49.455933 -3.011976 3.234469 21.560521 2.639188 1.693708 12.356673 1.316737 2.143422 15.431696 1.710000 1.668047 12.350699 1.313531 0.316951 16.217605 3.904595 -0.751270 -5.613723 7.073599 1.551557 3.278331 -0.512940 -3.336702 -15.375856 -6.573968 -9.100684 -72.189101 51.688806 19.889437 20.247777 -20.625675 -9.923775 0.762777 -1.175361 4.863973 -15.626594 11.199691 40.186047 -58.659863 -77.865903 -0.131744 11.985157 6.530997 4.694420 -22.080679 -3.303660 -30.472167 74.504389 -34.989462 7.613193 -14.077374 12.195483 -0.003878 0.142629 -0.088017 -7.910116 -19.694388 4.850477 87.389425 80.935304 86.520698 0.788591 -21.428069 -18.920622 -0.023371 0.017143 -0.018145
-59.097557 57.790294 11.774633 178.491403 -49.465996 -3.019119 3.208877 21.560671 2.639352 1.670728 12.359371 1.320079 2.152529 15.438292 1.709895 1.601930 12.353438 1.342987 0.313854 16.202208 3.845110 -0.776885 -5.634440 7.031460 1.627808 3.266669 -0.574360 -3.302785 -15.377032 -6.589536 -8.894662 -72.251564 51.486546 19.836100 20.273317 -20.576793 -9.925968 0.693332 -1.269983 4.569235 -15.590721 11.221293 38.565354 -59.088526 -75.963129 -0.412636 12.612923 6.370827 4.713208 -22.066375 -3.267118 -30.566434 74.492406 -35.079721 7.580974 -14.139190 12.244187 0.005732 0.141607 -0.088911 -7.903831 -19.680387 4.864820 87.387726 80.940157 86.539829 0.792450 -21.427810 -18.935104 -0.014843 0.010821 -0.018588
-59.091054 57.794509 11.769663 178.471925 -49.488166 -3.024292 3.195617 21.574289 2.645412 1.682919 12.365343 1.323282 2.119505 15.439649 1.716118 1.586841 12.356541 1.343831 0.325467 16.195936 3.813470 -0.855770 -5.674102 7.014040 1.652956 3.257009 -0.594679 -3.264240 -15.384194 -6.604926 -8.815648 -72.254430 51.407149 19.854130 20.296128 -20.528837 -9.979433 0.618274 -1.327772 4.272951 -15.539228 11.245267 36.902602 -59.646486 -74.011015 -0.690193 13.274588 6.176499 4.731138 -22.041472 -3.231796 -30.651254 74.485811 -35.162058 7.555288 -14.197581 12.291364 0.017074 0.135234 -0.090969 -7.876994 -19.652079 4.862485 87.350644 80.937394 86.539872 0.815341 -21.429437 -18.954419 -0.018673 0.010848 -0.020926
-59.088824 57.797176 11.764418 178.462468 -49.502378 -3.015464 3.164581 21.581897 2.626684 1.637130 12.365055 1.321627 2.138296 15.448432 1.712144 1.574373 12.359712 1.345531 0.280091 16.174247 3.790331 -0.877540 -5.700481 6.964976 1.679817 3.249423 -0.616722 -3.220421 -15.457063 -6.606791 -8.658905 -72.194920 51.249001 19.921865 20.357718 -20.433161 -10.037220 0.530936 -1.389590 3.989652 -15.473263 11.270565 35.107819 -60.354206 -71.932266 -0.964892 13.980134 5.915822 4.750588 -22.022115 -3.227275 -30.711609 74.487859 -35.226713 7.548048 -14.265558 12.337373 0.006276 0.130399 -0.091804 -7.856957 -19.630752 4.840346 87.299399 80.935537 86.514402 0.834674 -21.437053 -18.966073 -0.019928 0.015435 -0.023003
-59.086400 57.798171 11.759625 178.459274 -49.505498 -3.016595 3.129853 21.578824 2.610919 1.625624 12.368260 1.323596 2.064418 15.449914 1.719994 1.613869 12.366632 1.322165 0.235072 16.149852 3.764537 -0.897534 -5.730574 6.911480 1.667126 3.233120 -0.619884 -3.130217 -15.503394 -6.635184 -8.450995 -72.173714 51.029849 20.040813 20.468835 -20.240325 -10.094397 0.435471 -1.450650 3.723031 -15.397523 11.295408 32.924710 -61.036927 -69.477127 -1.371123 14.596406 5.542331 4.753234 -22.003959 -3.213044 -30.740785 74.478924 -35.268889 7.523208 -14.368262 12.407648 0.009051 0.167418 -0.113153 -7.855804 -19.626108 4.840929 87.344623 80.936970 86.571203 0.832320 -21.444998 -18.965839 -0.018609 0.012061 -0.028620
-59.084549 57.801264 11.752115 178.476713 -49.526486 -3.033090 3.084006 21.593739 2.595597 1.648898 12.375179 1.328623 2.013531 15.447100 1.722498 1.636385 12.371564 1.312607 0.222324 16.139568 3.749376 -0.977416 -5.787977 6.878820 1.657653 3.230592 -0.619779 -3.080820 -15.541650 -6.652984 -8.284402 -72.174638 50.849389 20.108158 20.540399 -20.101993 -10.177664 0.337587 -1.486669 3.471818 -15.319319 11.320829 30.273359 -61.438392 -66.538527 -2.134561 14.979092 5.005945 4.738121 -21.979012 -3.201585 -30.810869 74.484185 -35.361684 7.526857 -14.455407 12.454193 0.000895 0.178162 -0.111876 -7.871358 -19.599132 4.841661 87.376585 80.926531 86.608124 0.818848 -21.449795 -18.974546 -0.004315 0.005043 -0.021181
-59.079839 57.804151 11.744384 178.459218 -49.547139 -3.043159 3.069901 21.606394 2.602238 1.636659 12.376120 1.329469 2.026170 15.452403 1.719577 1.630123 12.372570 1.312879 0.142890 16.104058 3.735942 -0.997627 -5.824411 6.823186 1.647146 3.233170 -0.621558 -3.031964 -15.556293 -6.671371 -8.152888 -72.204631 50.707070 20.145548 20.599920 -19.991425 -10.250994 0.240370 -1.509331 3.240616 -15.245930 11.342402 27.465083 -61.748786 -63.331352 -3.174150 15.284578 4.219629 4.739182 -21.958465 -3.172479 -30.827701 74.485772 -35.383204 7.526461 -14.503500 12.479845 -0.002463 0.167974 -0.107586 -7.850902 -19.562874 4.863837 87.300475 80.929503 86.545414 0.820603 -21.457132 -18.973906 -0.003595 0.008599 -0.023400
-59.076818 57.805284 11.737363 178.456448 -49.555050 -3.057089 3.043719 21.607723 2.600762 1.572532 12.370856 1.320555 2.039669 15.458843 1.715418 1.576343 12.370685 1.320803 0.136758 16.074846 3.677517 -1.021332 -5.864474 6.766302 1.726625 3.250901 -0.664684 -2.995968 -15.612286 -6.687101 -7.991627 -72.198774 50.549451 20.173185 20.660297 -19.888932 -10.220915 0.150897 -1.557856 3.029859 -15.182256 11.353172 24.660201 -62.341988 -60.005191 -4.196972 15.750079 3.198718 4.733709 -21.949653 -3.145344 -30.864741 74.485839 -35.428117 7.521789 -14.535687 12.496307 -0.000291 0.142809 -0.092791 -7.842920 -19.548526 4.876352 87.294455 80.921203 86.557851 0.813753 -21.463714 -18.981806 -0.000723 0.009364 -0.020484
-59.075327 57.805766 11.730187 178.455444 -49.559462 -3.065598 3.014071 21.605837 2.593046 1.558707 12.370448 1.319251 2.006223 15.456762 1.713429 1.558713 12.370406 1.319254 0.117925 16.047930 3.633461 -1.074121 -5.918628 6.713283 1.777604 3.268325 -0.688806 -2.990777 -15.717631 -6.705262 -7.814866 -72.136533 50.406869 20.180654 20.699499 -19.816721 -10.195365 0.090612 -1.583714 2.817554 -15.154867 11.358719 21.790203 -63.202865 -56.600387 -5.168400 16.398682 2.089613 4.731475 -21.949726 -3.118452 -30.936065 74.497246 -35.510263 7.505449 -14.573615 12.512631 0.005490 0.128365 -0.082394 -7.830298 -19.538659 4.880683 87.292963 80.914254 86.573989 0.808078 -21.473003 -18.985807 0.002177 0.010953 -0.013816
-59.075680 57.806019 11.722495 178.441676 -49.564849 -3.055385 2.989370 21.605228 2.576583 1.545081 12.369258 1.318105 2.019501 15.460924 1.710301 1.517944 12.362468 1.327405 0.076608 16.014452 3.593501 -1.138532 -5.980250 6.654846 1.821769 3.285640 -0.708010 -2.987012 -15.768113 -6.722571 -7.694051 -72.124710 50.303773 20.199777 20.749118 -19.734596 -10.147476 0.077759 -1.611254 2.587210 -15.190342 11.372794 18.751277 -64.163529 -53.110541 -6.195022 17.114061 0.997766 4.740010 -21.949552 -3.110010 -30.997582 74.513268 -35.582890 7.493835 -14.636785 12.534338 0.009947 0.125160 -0.073207 -7.721662 -19.526524 4.837919 87.154676 80.897079 86.531368 0.806578 -21.486763 -18.991235 0.001287 0.018495 -0.013162
